<svg width="100" height="100" viewBox="0 0 100 100" fill="none" xmlns="http://www.w3.org/2000/svg">
<rect width="100" height="100" rx="10" fill="white" fill-opacity="0.1"/>
<g filter="url(#filter0_d_232_57)">
<path d="M24 50.5C24 47.4624 25.9401 45 28.3333 45H71.6667C74.0599 45 76 47.4624 76 50.5C76 53.5376 74.0599 56 71.6667 56H28.3333C25.9401 56 24 53.5376 24 50.5Z" fill="#6F6B82"/>
<path d="M50 25C52.7614 25 55 26.9028 55 29.25L55 71.75C55 74.0972 52.7614 76 50 76C47.2386 76 45 74.0972 45 71.75L45 29.25C45 26.9028 47.2386 25 50 25Z" fill="#6F6B82"/>
</g>
<defs>
<filter id="filter0_d_232_57" x="-5" y="-5" width="110" height="110" filterUnits="userSpaceOnUse" color-interpolation-filters="sRGB">
<feFlood flood-opacity="0" result="BackgroundImageFix"/>
<feColorMatrix in="SourceAlpha" type="matrix" values="0 0 0 0 0 0 0 0 0 0 0 0 0 0 0 0 0 0 127 0" result="hardAlpha"/>
<feOffset/>
<feGaussianBlur stdDeviation="7.5"/>
<feComposite in2="hardAlpha" operator="out"/>
<feColorMatrix type="matrix" values="0 0 0 0 1 0 0 0 0 1 0 0 0 0 1 0 0 0 0.1 0"/>
<feBlend mode="normal" in2="BackgroundImageFix" result="effect1_dropShadow_232_57"/>
<feBlend mode="normal" in="SourceGraphic" in2="effect1_dropShadow_232_57" result="shape"/>
</filter>
</defs>
</svg>
