<svg width="114" height="120" viewBox="0 0 114 120" fill="none" xmlns="http://www.w3.org/2000/svg">
<g filter="url(#filter0_d_422_124)">
<path opacity="0.3" fill-rule="evenodd" clip-rule="evenodd" d="M51.1984 15.3133C48.0597 16.158 45.6878 18.3316 44.4677 21.4818C44.1652 22.2623 44.0229 23.2641 43.918 25.3471C43.7476 28.7313 43.3852 29.7643 41.8723 31.1784C39.4579 33.4355 36.8153 33.6165 33.5591 31.7478C31.5494 30.5943 30.1368 30.096 28.448 29.9442C25.8569 29.7114 22.8367 30.8498 20.9045 32.7876C19.8633 33.8318 16.0587 40.1939 15.4238 41.9519C15.2514 42.4297 15.0683 43.6509 15.0169 44.6657C14.9015 46.9451 15.3726 48.7013 16.5873 50.5192C17.5226 51.9191 18.218 52.514 20.6037 53.9564C23.5469 55.7357 24.4919 57.1987 24.5023 59.9928C24.5084 61.5582 24.4521 61.8053 23.8261 62.9655C23.033 64.4351 22.5985 64.836 20.3708 66.1536C16.4962 68.4446 14.8145 71.3241 15.0169 75.3199C15.0683 76.3348 15.2514 77.5559 15.4238 78.0337C16.0475 79.7612 19.8563 86.1222 20.9021 87.183C22.8196 89.1282 25.845 90.2752 28.442 90.0421C30.1424 89.8892 31.2843 89.4893 33.4325 88.2947C36.1127 86.8042 37.9275 86.5887 40.0348 87.511C41.2734 88.0529 42.7861 89.5584 43.3193 90.7796C43.6887 91.6259 43.8035 92.3662 43.918 94.6386C44.0229 96.7216 44.1652 97.7234 44.4677 98.5039C45.7045 101.697 48.0773 103.848 51.2844 104.682C52.9109 105.106 60.6339 105.106 62.2603 104.682C65.4698 103.847 67.8558 101.683 69.0723 98.5039C69.3657 97.7368 69.5156 96.6858 69.6233 94.6386C69.8016 91.252 70.1657 90.2158 71.6724 88.8073C73.3294 87.2582 75.2855 86.6624 77.298 87.0939C77.8841 87.2194 79.1562 87.7631 80.1251 88.3019C83.0472 89.927 84.8548 90.3343 87.3084 89.9208C89.2414 89.595 91.311 88.5373 92.6143 87.2095C93.8706 85.9296 97.605 79.5395 98.1848 77.6776C98.7021 76.0165 98.7001 73.6969 98.1798 72.0144C97.4055 69.5109 95.9211 67.778 93.1432 66.1351C90.0187 64.2873 89.0488 62.8322 89.0488 59.9928C89.0488 57.1535 90.0187 55.6984 93.1432 53.8506C95.9211 52.2077 97.4055 50.4748 98.1798 47.9713C98.6993 46.2914 98.7021 43.969 98.1866 42.3139C97.6105 40.4637 93.8714 34.0491 92.6426 32.8026C90.7252 30.8575 87.6997 29.7104 85.1028 29.9436C83.4024 30.0965 82.2604 30.4963 80.1122 31.691C77.4321 33.1814 75.6173 33.3969 73.5099 32.4747C72.2713 31.9328 70.7586 30.4272 70.2254 29.2061C69.856 28.3597 69.7413 27.6194 69.6267 25.3471C69.5218 23.2641 69.3795 22.2623 69.0771 21.4818C67.8403 18.2886 65.4674 16.1379 62.2603 15.3032C60.6869 14.8937 52.7304 14.9009 51.1984 15.3133ZM60.5939 44.3966C64.7845 45.5394 67.9641 47.8154 70.2592 51.3149C72.0298 54.0145 72.7408 56.5007 72.7408 59.9928C72.7408 64.5319 71.2458 68.1901 68.1104 71.3237C61.875 77.5549 51.7903 77.5941 45.5332 71.4113C42.3109 68.2269 40.804 64.5886 40.804 59.9928C40.804 56.4903 41.5118 54.0243 43.3053 51.2786C45.6721 47.6553 49.3961 45.1383 53.7578 44.2136C55.3686 43.8722 59.0303 43.9702 60.5939 44.3966Z" fill="white"/>
<path d="M37.4089 63.7844L37.4088 63.7848C37.254 64.7085 37.6228 65.6397 38.3738 66.2029L52.2974 78.2533L52.3012 78.2565C52.8488 78.7211 53.5711 78.9256 54.2783 78.8232L54.2811 78.8228C54.992 78.7156 55.6214 78.3113 56.0121 77.7109C56.0122 77.7107 56.0123 77.7105 56.0125 77.7103L76.1029 47.028C76.6371 46.2426 76.6798 45.2285 76.2173 44.4008L76.2167 44.3997C75.7529 43.5748 74.8613 43.0828 73.9167 43.1256C73.0898 43.1557 72.3307 43.5929 71.8909 44.2932L53.3939 72.5918L41.6553 62.4485C41.0013 61.7829 40.0285 61.5351 39.1321 61.8158C38.2343 62.0943 37.5653 62.8555 37.4089 63.7844Z" fill="white" stroke="white"/>
</g>
<defs>
<filter id="filter0_d_422_124" x="-3" y="0" width="120" height="120" filterUnits="userSpaceOnUse" color-interpolation-filters="sRGB">
<feFlood flood-opacity="0" result="BackgroundImageFix"/>
<feColorMatrix in="SourceAlpha" type="matrix" values="0 0 0 0 0 0 0 0 0 0 0 0 0 0 0 0 0 0 127 0" result="hardAlpha"/>
<feOffset/>
<feGaussianBlur stdDeviation="7.5"/>
<feComposite in2="hardAlpha" operator="out"/>
<feColorMatrix type="matrix" values="0 0 0 0 1 0 0 0 0 1 0 0 0 0 1 0 0 0 0.1 0"/>
<feBlend mode="normal" in2="BackgroundImageFix" result="effect1_dropShadow_422_124"/>
<feBlend mode="normal" in="SourceGraphic" in2="effect1_dropShadow_422_124" result="shape"/>
</filter>
</defs>
</svg>
