<svg width="114" height="120" viewBox="0 0 114 120" fill="none" xmlns="http://www.w3.org/2000/svg">
<g filter="url(#filter0_d_448_66)">
<path opacity="0.3" fill-rule="evenodd" clip-rule="evenodd" d="M51.1984 15.3133C48.0597 16.158 45.6878 18.3316 44.4677 21.4818C44.1652 22.2623 44.0229 23.2641 43.918 25.3471C43.7476 28.7313 43.3852 29.7643 41.8723 31.1784C39.4579 33.4355 36.8153 33.6165 33.5591 31.7478C31.5494 30.5943 30.1368 30.096 28.448 29.9442C25.8569 29.7114 22.8367 30.8498 20.9045 32.7876C19.8633 33.8318 16.0587 40.1939 15.4238 41.9519C15.2514 42.4297 15.0683 43.6509 15.0169 44.6657C14.9015 46.9451 15.3726 48.7013 16.5873 50.5192C17.5226 51.9191 18.218 52.514 20.6037 53.9564C23.5469 55.7357 24.4919 57.1987 24.5023 59.9928C24.5084 61.5582 24.4521 61.8053 23.8261 62.9655C23.033 64.4351 22.5985 64.836 20.3708 66.1536C16.4962 68.4446 14.8145 71.3241 15.0169 75.3199C15.0683 76.3348 15.2514 77.5559 15.4238 78.0337C16.0475 79.7612 19.8563 86.1222 20.9021 87.183C22.8196 89.1282 25.845 90.2752 28.442 90.0421C30.1424 89.8892 31.2843 89.4893 33.4325 88.2947C36.1127 86.8042 37.9275 86.5887 40.0348 87.511C41.2734 88.0529 42.7861 89.5584 43.3193 90.7796C43.6887 91.6259 43.8035 92.3662 43.918 94.6386C44.0229 96.7216 44.1652 97.7234 44.4677 98.5039C45.7045 101.697 48.0773 103.848 51.2844 104.682C52.9109 105.106 60.6339 105.106 62.2603 104.682C65.4698 103.847 67.8558 101.683 69.0723 98.5039C69.3657 97.7368 69.5156 96.6858 69.6233 94.6386C69.8016 91.252 70.1657 90.2158 71.6724 88.8073C73.3294 87.2582 75.2855 86.6624 77.298 87.0939C77.8841 87.2194 79.1562 87.7631 80.1251 88.3019C83.0472 89.927 84.8548 90.3343 87.3084 89.9208C89.2414 89.595 91.311 88.5373 92.6143 87.2095C93.8706 85.9296 97.605 79.5395 98.1848 77.6776C98.7021 76.0165 98.7001 73.6969 98.1798 72.0144C97.4055 69.5109 95.9211 67.778 93.1432 66.1351C90.0187 64.2873 89.0488 62.8322 89.0488 59.9928C89.0488 57.1535 90.0187 55.6984 93.1432 53.8506C95.9211 52.2077 97.4055 50.4748 98.1798 47.9713C98.6993 46.2914 98.7021 43.969 98.1866 42.3139C97.6105 40.4637 93.8714 34.0491 92.6426 32.8026C90.7252 30.8575 87.6997 29.7104 85.1028 29.9436C83.4024 30.0965 82.2604 30.4963 80.1122 31.691C77.4321 33.1814 75.6173 33.3969 73.5099 32.4747C72.2713 31.9328 70.7586 30.4272 70.2254 29.2061C69.856 28.3597 69.7413 27.6194 69.6267 25.3471C69.5218 23.2641 69.3795 22.2623 69.0771 21.4818C67.8403 18.2886 65.4674 16.1379 62.2603 15.3032C60.6869 14.8937 52.7304 14.9009 51.1984 15.3133ZM60.5939 44.3966C64.7845 45.5394 67.9641 47.8154 70.2592 51.3149C72.0298 54.0145 72.7408 56.5007 72.7408 59.9928C72.7408 64.5319 71.2458 68.1901 68.1104 71.3237C61.875 77.5549 51.7903 77.5941 45.5332 71.4113C42.3109 68.2269 40.804 64.5886 40.804 59.9928C40.804 56.4903 41.5118 54.0243 43.3053 51.2786C45.6721 47.6553 49.3961 45.1383 53.7578 44.2136C55.3686 43.8722 59.0303 43.9702 60.5939 44.3966Z" fill="white"/>
<path fill-rule="evenodd" clip-rule="evenodd" d="M38.9404 38.12C37.7353 38.3809 36.6094 39.1596 35.8741 40.2406C34.8326 41.7719 34.7153 43.6736 35.557 45.3809C35.8613 45.9983 36.1734 46.3251 42.8452 53.0131L49.8154 60.0003L42.8452 66.9875C36.1727 73.6762 35.8614 74.0023 35.5571 74.6197C34.3977 76.9723 35.0946 79.6667 37.2399 81.1259C38.7712 82.1674 40.6729 82.2847 42.3802 81.443C42.9976 81.1387 43.3244 80.8266 50.0123 74.1547L56.9995 67.1845L63.9866 74.1547C70.6746 80.8266 71.0014 81.1387 71.6188 81.443C73.3078 82.2756 75.2057 82.1676 76.7234 81.1525C78.8989 79.6974 79.6108 76.991 78.442 74.6197C78.1377 74.0023 77.8256 73.6756 71.1538 66.9875L64.1836 60.0003L71.1538 53.0131C77.8263 46.3244 78.1376 45.9984 78.4419 45.3809C79.6013 43.0283 78.9044 40.334 76.7591 38.8748C75.2304 37.835 73.3432 37.7172 71.6188 38.5538C70.9973 38.8552 70.7181 39.1219 63.9866 45.8414L56.9995 52.8162L50.0123 45.8459C43.3237 39.1734 42.9977 38.8621 42.3802 38.5577C41.2798 38.0154 40.1104 37.8666 38.9404 38.12Z" fill="white"/>
</g>
<defs>
<filter id="filter0_d_448_66" x="-3" y="0" width="120" height="120" filterUnits="userSpaceOnUse" color-interpolation-filters="sRGB">
<feFlood flood-opacity="0" result="BackgroundImageFix"/>
<feColorMatrix in="SourceAlpha" type="matrix" values="0 0 0 0 0 0 0 0 0 0 0 0 0 0 0 0 0 0 127 0" result="hardAlpha"/>
<feOffset/>
<feGaussianBlur stdDeviation="7.5"/>
<feComposite in2="hardAlpha" operator="out"/>
<feColorMatrix type="matrix" values="0 0 0 0 1 0 0 0 0 1 0 0 0 0 1 0 0 0 0.1 0"/>
<feBlend mode="normal" in2="BackgroundImageFix" result="effect1_dropShadow_448_66"/>
<feBlend mode="normal" in="SourceGraphic" in2="effect1_dropShadow_448_66" result="shape"/>
</filter>
</defs>
</svg>
