<svg width="65" height="70" viewBox="0 0 65 70" fill="none" xmlns="http://www.w3.org/2000/svg">
<g filter="url(#filter0_d_83_623)">
<path opacity="0.3" fill-rule="evenodd" clip-rule="evenodd" d="M28.4994 15.7983C22.0007 18.573 20.6213 27.1354 25.9359 31.7095C34.8638 39.3939 47.5141 27.505 39.8769 18.608C36.932 15.1776 32.5106 14.0853 28.4994 15.7983ZM20.4794 35.7656C17.8841 37.4786 16.8497 39.4152 15.9705 44.2109C15.0683 49.1307 16.1775 52.392 19.2667 53.9046C21.1401 54.8221 23.3176 55 32.6844 55C45.6286 55 47.7594 54.4319 49.1203 50.6176C50.7963 45.9195 48.4156 37.8212 44.7079 35.6046C42.0033 33.9881 40.7203 34.0075 37.9166 35.7061C36.4362 36.603 34.6216 37.0796 32.6844 37.0796C30.7471 37.0796 28.9326 36.603 27.4521 35.7061C24.5801 33.9661 23.1885 33.978 20.4794 35.7656Z" fill="white"/>
</g>
<defs>
<filter id="filter0_d_83_623" x="-2" y="0" width="70" height="70" filterUnits="userSpaceOnUse" color-interpolation-filters="sRGB">
<feFlood flood-opacity="0" result="BackgroundImageFix"/>
<feColorMatrix in="SourceAlpha" type="matrix" values="0 0 0 0 0 0 0 0 0 0 0 0 0 0 0 0 0 0 127 0" result="hardAlpha"/>
<feOffset/>
<feGaussianBlur stdDeviation="7.5"/>
<feComposite in2="hardAlpha" operator="out"/>
<feColorMatrix type="matrix" values="0 0 0 0 1 0 0 0 0 1 0 0 0 0 1 0 0 0 0.1 0"/>
<feBlend mode="normal" in2="BackgroundImageFix" result="effect1_dropShadow_83_623"/>
<feBlend mode="normal" in="SourceGraphic" in2="effect1_dropShadow_83_623" result="shape"/>
</filter>
</defs>
</svg>
