<svg width="110" height="110" viewBox="0 0 110 110" fill="none" xmlns="http://www.w3.org/2000/svg">
<rect width="110" height="110" rx="10" fill="white" fill-opacity="0.1"/>
<g filter="url(#filter0_d_232_52)">
<path opacity="0.3" fill-rule="evenodd" clip-rule="evenodd" d="M45.999 16.5967C33.0017 22.1459 30.2428 39.2709 40.8721 48.419C58.7278 63.7877 84.0284 40.0099 68.754 22.2161C62.8643 15.3553 54.0214 13.1707 45.999 16.5967ZM29.9591 56.5311C24.7684 59.9571 22.6995 63.8303 20.9412 73.4219C19.1368 83.2614 21.3552 89.784 27.5337 92.8091C31.2804 94.6442 35.6354 95 54.369 95C80.2574 95 84.5191 93.8638 87.2409 86.2352C90.5928 76.8391 85.8315 60.6423 78.416 56.2092C73.0067 52.9761 70.4408 53.0149 64.8335 56.4121C61.8727 58.2059 58.2435 59.1592 54.369 59.1592C50.4945 59.1592 46.8654 58.2059 43.9045 56.4121C38.1605 52.9323 35.3773 52.9561 29.9591 56.5311Z" fill="white"/>
</g>
<defs>
<filter id="filter0_d_232_52" x="0" y="0" width="110" height="110" filterUnits="userSpaceOnUse" color-interpolation-filters="sRGB">
<feFlood flood-opacity="0" result="BackgroundImageFix"/>
<feColorMatrix in="SourceAlpha" type="matrix" values="0 0 0 0 0 0 0 0 0 0 0 0 0 0 0 0 0 0 127 0" result="hardAlpha"/>
<feOffset/>
<feGaussianBlur stdDeviation="7.5"/>
<feComposite in2="hardAlpha" operator="out"/>
<feColorMatrix type="matrix" values="0 0 0 0 1 0 0 0 0 1 0 0 0 0 1 0 0 0 0.1 0"/>
<feBlend mode="normal" in2="BackgroundImageFix" result="effect1_dropShadow_232_52"/>
<feBlend mode="normal" in="SourceGraphic" in2="effect1_dropShadow_232_52" result="shape"/>
</filter>
</defs>
</svg>
