<svg width="70" height="70" viewBox="0 0 70 70" fill="none" xmlns="http://www.w3.org/2000/svg">
<g filter="url(#filter0_d_83_629)">
<path opacity="0.3" fill-rule="evenodd" clip-rule="evenodd" d="M33.206 15.0473C29.3408 15.4258 25.7684 16.8497 22.6363 19.2604C21.111 20.4343 19.1301 22.6406 17.9854 24.4403C17.4911 25.2176 16.5287 27.1872 16.184 28.1271C15.7985 29.1782 15.3877 30.7844 15.1856 32.0307C14.9381 33.5562 14.9381 36.4524 15.1856 37.9779C15.5354 40.1343 16.0888 41.8776 17.036 43.8076C18.0709 45.9161 19.1471 47.4107 20.8703 49.1331C22.5936 50.8553 24.0891 51.9308 26.1988 52.9651C28.1299 53.9118 29.8742 54.4649 32.0319 54.8145C33.5582 55.0618 36.4561 55.0618 37.9824 54.8145C40.1401 54.4649 41.8844 53.9118 43.8155 52.9651C45.9252 51.9308 47.4207 50.8553 49.144 49.1331C50.8672 47.4107 51.9433 45.9161 52.9782 43.8076C53.6656 42.4071 54.0113 41.4892 54.3817 40.0817C54.8749 38.2072 55 37.1797 55 35.0043C55 32.8289 54.8749 31.8014 54.3817 29.9269C54.0113 28.5194 53.6656 27.6015 52.9782 26.201C51.9433 24.0925 50.8672 22.5979 49.144 20.8755C47.4207 19.1533 45.9252 18.0778 43.8155 17.0435C41.8863 16.0976 40.1074 15.5334 38.0215 15.2054C36.8707 15.0245 34.3008 14.9401 33.206 15.0473ZM36.2599 18.3717C36.2599 18.391 36.1718 18.5018 36.0641 18.618C35.7252 18.9835 35.8072 19.436 36.3119 19.9851L36.4964 20.1859L36.3195 20.3503C36.2221 20.4408 35.8253 20.6967 35.4378 20.9191C33.3562 22.1136 32.1884 23.573 32.1884 24.9796C32.1884 25.5677 32.3896 26.0474 32.7799 26.3898C33.0767 26.6503 33.0815 26.6515 33.7099 26.6111C34.4429 26.5641 34.9989 26.3895 36.2749 25.806C37.8388 25.0908 38.1225 25.0262 39.6658 25.0335C43.087 25.0498 45.5144 25.97 44.9445 27.0343C44.7564 27.3857 44.413 27.4437 42.3278 27.4765C40.1317 27.511 39.7896 27.4713 38.7705 27.0638C37.9076 26.7188 37.0488 26.6186 35.7724 26.7142C32.7209 26.9427 30.5758 28.3464 30.0258 30.4745C29.9189 30.8883 29.9052 31.2062 29.9465 32.3216C30.0051 33.9048 30.1219 34.3291 30.642 34.8489C31.3385 35.5449 32.0644 35.7656 33.9893 35.8663C36.098 35.9767 37.509 36.2046 38.1575 36.5398C38.3395 36.6338 38.3739 36.7017 38.3739 36.9671C38.3739 37.4035 38.5022 37.8873 38.8551 38.7815C39.2647 39.8195 39.2626 40.1587 38.842 40.8557C38.4317 41.5355 38.3497 41.8665 38.3912 42.673C38.4422 43.6622 38.895 44.676 39.848 45.9341C40.4645 46.748 40.676 46.8019 41.7838 46.4277C43.0854 45.988 44.272 45.3002 44.9317 44.6031C45.4763 44.0275 45.7237 43.506 45.8214 42.7272C45.9462 41.7334 46.0104 41.5931 46.6345 40.9514C47.3166 40.2501 47.4306 40.0409 47.5361 39.2973C47.6505 38.4918 48.2157 37.51 49.3769 36.0998C50.3042 34.9737 50.298 34.9359 48.9715 33.6505C48.4319 33.1276 47.8179 32.47 47.6071 32.1892C47.1855 31.6278 46.7124 30.7918 46.7787 30.7255C46.8296 30.6746 47.228 30.9444 47.6411 31.3093C48.4611 32.0339 49.3782 31.9263 50.6121 30.9606C50.8622 30.765 51.0774 30.6176 51.0906 30.6331C51.1326 30.6829 51.3711 31.7359 51.4957 32.422C51.6668 33.3646 51.7278 35.6509 51.6105 36.7377C51.0506 41.9333 48.1452 46.495 43.6197 49.2842C40.0962 51.4558 35.6362 52.2012 31.4838 51.3122C28.7346 50.7238 26.0186 49.3262 23.8304 47.3742L23.341 46.9377V45.2944L23.3411 43.6511L23.5736 43.1598C23.7016 42.8895 23.892 42.555 23.9967 42.4164C24.345 41.9556 24.732 41.2306 24.8593 40.8003C25.0156 40.2724 25.0182 39.9173 24.8696 39.417C24.6573 38.7029 24.1274 38.3851 22.8021 38.1771C22.355 38.107 21.8771 38.0028 21.7401 37.9456C21.437 37.819 21.1401 37.4465 20.6432 36.5693C19.9602 35.3636 19.2564 34.5407 18.4685 34.0261C18.3671 33.9599 18.3592 33.8452 18.417 33.2828C18.896 28.624 21.4335 24.2563 25.2766 21.4753C27.6146 19.7834 30.5119 18.6777 33.3629 18.3894C33.7822 18.347 36.2599 18.3319 36.2599 18.3717Z" fill="white"/>
</g>
<defs>
<filter id="filter0_d_83_629" x="0" y="0" width="70" height="70" filterUnits="userSpaceOnUse" color-interpolation-filters="sRGB">
<feFlood flood-opacity="0" result="BackgroundImageFix"/>
<feColorMatrix in="SourceAlpha" type="matrix" values="0 0 0 0 0 0 0 0 0 0 0 0 0 0 0 0 0 0 127 0" result="hardAlpha"/>
<feOffset/>
<feGaussianBlur stdDeviation="7.5"/>
<feComposite in2="hardAlpha" operator="out"/>
<feColorMatrix type="matrix" values="0 0 0 0 1 0 0 0 0 1 0 0 0 0 1 0 0 0 0.1 0"/>
<feBlend mode="normal" in2="BackgroundImageFix" result="effect1_dropShadow_83_629"/>
<feBlend mode="normal" in="SourceGraphic" in2="effect1_dropShadow_83_629" result="shape"/>
</filter>
</defs>
</svg>
