<svg width="68" height="70" viewBox="0 0 68 70" fill="none" xmlns="http://www.w3.org/2000/svg">
<g filter="url(#filter0_d_83_633)">
<path opacity="0.3" fill-rule="evenodd" clip-rule="evenodd" d="M31.4216 15.1392C30.0266 15.5147 28.9724 16.4807 28.4301 17.8808C28.2957 18.2277 28.2325 18.6729 28.1858 19.5987C28.1101 21.1028 27.949 21.5619 27.2766 22.1904C26.2035 23.1936 25.0291 23.274 23.5819 22.4435C22.6887 21.9308 22.0608 21.7094 21.3103 21.6419C20.1587 21.5384 18.8163 22.0444 17.9576 22.9056C17.4948 23.3697 15.8039 26.1973 15.5217 26.9786C15.4451 27.191 15.3637 27.7337 15.3409 28.1848C15.2896 29.1978 15.499 29.9784 16.0388 30.7863C16.4545 31.4085 16.7636 31.6729 17.8239 32.314C19.132 33.1048 19.552 33.755 19.5566 34.9968C19.5593 35.6925 19.5343 35.8023 19.2561 36.318C18.9036 36.9712 18.7105 37.1493 17.7204 37.7349C15.9984 38.7532 15.2509 40.0329 15.3409 41.8089C15.3637 42.2599 15.4451 42.8026 15.5217 43.015C15.7989 43.7828 17.4917 46.6099 17.9565 47.0813C18.8088 47.9459 20.1534 48.4557 21.3076 48.352C22.0633 48.2841 22.5709 48.1064 23.5256 47.5754C24.7168 46.913 25.5234 46.8172 26.46 47.2271C27.0105 47.468 27.6828 48.1371 27.9197 48.6798C28.0839 49.056 28.1349 49.385 28.1858 50.3949C28.2325 51.3207 28.2957 51.7659 28.4301 52.1128C28.9798 53.532 30.0344 54.4879 31.4598 54.8589C32.1827 55.047 35.6151 55.047 36.338 54.8589C37.7644 54.4876 38.8248 53.5257 39.3655 52.1128C39.4959 51.7719 39.5625 51.3048 39.6104 50.3949C39.6896 48.8898 39.8515 48.4292 40.5211 47.8032C41.2576 47.1147 42.1269 46.85 43.0214 47.0417C43.2818 47.0975 43.8472 47.3391 44.2779 47.5786C45.5766 48.3009 46.3799 48.4819 47.4705 48.2981C48.3295 48.1533 49.2494 47.6833 49.8286 47.0931C50.387 46.5242 52.0467 43.6842 52.3044 42.8567C52.5343 42.1184 52.5334 41.0875 52.3022 40.3397C51.958 39.2271 51.2983 38.4569 50.0637 37.7267C48.675 36.9055 48.244 36.2587 48.244 34.9968C48.244 33.7349 48.675 33.0882 50.0637 32.2669C51.2983 31.5367 51.958 30.7666 52.3022 29.6539C52.5331 28.9073 52.5343 27.8751 52.3052 27.1395C52.0491 26.3172 50.3873 23.4663 49.8412 22.9123C48.989 22.0478 47.6444 21.538 46.4902 21.6416C45.7344 21.7095 45.2269 21.8873 44.2721 22.4182C43.081 23.0806 42.2744 23.1764 41.3378 22.7665C40.7873 22.5257 40.115 21.8566 39.878 21.3138C39.7138 20.9377 39.6628 20.6086 39.6119 19.5987C39.5653 18.6729 39.5021 18.2277 39.3676 17.8808C38.818 16.4616 37.7633 15.5057 36.338 15.1348C35.6387 14.9527 32.1025 14.956 31.4216 15.1392ZM35.5973 28.0652C37.4598 28.5731 38.873 29.5846 39.893 31.14C40.6799 32.3398 40.9959 33.4448 40.9959 34.9968C40.9959 37.0142 40.3315 38.6401 38.938 40.0328C36.1667 42.8022 31.6846 42.8196 28.9037 40.0717C27.4715 38.6564 26.8018 37.0394 26.8018 34.9968C26.8018 33.4401 27.1164 32.3441 27.9135 31.1238C28.9654 29.5135 30.6205 28.3948 32.5591 27.9838C33.275 27.8321 34.9024 27.8757 35.5973 28.0652Z" fill="white"/>
</g>
<defs>
<filter id="filter0_d_83_633" x="-1" y="0" width="70" height="70" filterUnits="userSpaceOnUse" color-interpolation-filters="sRGB">
<feFlood flood-opacity="0" result="BackgroundImageFix"/>
<feColorMatrix in="SourceAlpha" type="matrix" values="0 0 0 0 0 0 0 0 0 0 0 0 0 0 0 0 0 0 127 0" result="hardAlpha"/>
<feOffset/>
<feGaussianBlur stdDeviation="7.5"/>
<feComposite in2="hardAlpha" operator="out"/>
<feColorMatrix type="matrix" values="0 0 0 0 1 0 0 0 0 1 0 0 0 0 1 0 0 0 0.1 0"/>
<feBlend mode="normal" in2="BackgroundImageFix" result="effect1_dropShadow_83_633"/>
<feBlend mode="normal" in="SourceGraphic" in2="effect1_dropShadow_83_633" result="shape"/>
</filter>
</defs>
</svg>
