<svg width="66" height="63" viewBox="0 0 66 63" fill="none" xmlns="http://www.w3.org/2000/svg">
<g filter="url(#filter0_d_99_813)">
<g opacity="0.3">
<path d="M15 18.587C15 16.6059 16.3431 15 18 15H48C49.6569 15 51 16.6059 51 18.587C51 20.568 49.6569 22.1739 48 22.1739H18C16.3431 22.1739 15 20.568 15 18.587Z" fill="white"/>
<path d="M15 31.5C15 29.519 16.3431 27.913 18 27.913H48C49.6569 27.913 51 29.519 51 31.5C51 33.481 49.6569 35.087 48 35.087H18C16.3431 35.087 15 33.481 15 31.5Z" fill="white"/>
<path d="M15 44.413C15 42.432 16.3431 40.8261 18 40.8261H48C49.6569 40.8261 51 42.432 51 44.413C51 46.3941 49.6569 48 48 48H18C16.3431 48 15 46.3941 15 44.413Z" fill="white"/>
</g>
</g>
<defs>
<filter id="filter0_d_99_813" x="-2" y="-4" width="70" height="70" filterUnits="userSpaceOnUse" color-interpolation-filters="sRGB">
<feFlood flood-opacity="0" result="BackgroundImageFix"/>
<feColorMatrix in="SourceAlpha" type="matrix" values="0 0 0 0 0 0 0 0 0 0 0 0 0 0 0 0 0 0 127 0" result="hardAlpha"/>
<feOffset/>
<feGaussianBlur stdDeviation="7.5"/>
<feComposite in2="hardAlpha" operator="out"/>
<feColorMatrix type="matrix" values="0 0 0 0 1 0 0 0 0 1 0 0 0 0 1 0 0 0 0.1 0"/>
<feBlend mode="normal" in2="BackgroundImageFix" result="effect1_dropShadow_99_813"/>
<feBlend mode="normal" in="SourceGraphic" in2="effect1_dropShadow_99_813" result="shape"/>
</filter>
</defs>
</svg>
